<?xml version="1.0" encoding="utf-8"?>
<!-- Generator: Adobe Illustrator 17.0.1, SVG Export Plug-In . SVG Version: 6.00 Build 0)  -->
<!DOCTYPE svg PUBLIC "-//W3C//DTD SVG 1.1//EN" "http://www.w3.org/Graphics/SVG/1.1/DTD/svg11.dtd">
<svg version="1.1" id="Capa_1" xmlns="http://www.w3.org/2000/svg" xmlns:xlink="http://www.w3.org/1999/xlink" x="0px" y="0px"
	 width="1191px" height="219px" viewBox="0 0 1191 219" style="enable-background:new 0 0 1191 219;" xml:space="preserve">
<style type="text/css">
	.st0{fill:#FFFFFF;}
</style>
<path class="st0" d="M447.7,49.3h-33.6L390.4,73H424L447.7,49.3z M371.8,73l23.7-23.7H362L338.2,73H371.8z M424,142.2H319.2v-69
	l24-23.9h-33.6l-14.1,14.1v102.6h152.3V73H424V142.2z"/>
<path class="st0" d="M1114.1,105l-19.6-8.1l8.1-19.4c-2.1-2.9-4.3-5.6-6.7-8.1c-0.1-0.2-0.3-0.3-0.4-0.5c-0.2-0.2-0.5-0.5-0.8-0.7
	c-2.4-2.3-5-4.5-7.8-6.5l-19.4,8l-8.1-19.5c-7-1.2-14.1-1.2-21-0.2c-0.1,0-0.2,0-0.3,0c-0.3,0-0.6,0.1-0.9,0.2l-8.1,19.5l-19.6-8.1
	c-5.8,4.2-10.9,9.2-15.1,14.8c0,0.1-0.1,0.1-0.1,0.2c-0.2,0.2-0.3,0.5-0.5,0.7l8.1,19.5l-19.5,8.1c-1.2,7-1.2,14.1-0.2,21
	c0,0.1,0,0.3,0,0.4c0,0.3,0.1,0.6,0.1,0.8l19.5,8.1l-8.1,19.5c1.9,2.6,3.9,5.1,6,7.4c0.4,0.4,0.8,0.8,1.2,1.2
	c0.3,0.3,0.6,0.6,0.9,0.8c2.3,2.3,4.9,4.4,7.7,6.3l19.5-8.1l8.1,19.5c0.3,0.1,0.6,0.1,0.9,0.2c0.1,0,0.2,0,0.2,0
	c6.9,1.1,14,1,21.1-0.2l8.1-19.6l19.5,8.1c0.3-0.2,0.5-0.3,0.7-0.5c0.1,0,0.1-0.1,0.2-0.2c5.6-4.1,10.6-9.2,14.8-15l-8.1-19.6
	l19.5-8.1c0-0.3,0.1-0.6,0.2-0.9c0-0.1,0-0.2,0-0.3C1115.3,119.2,1115.3,112.1,1114.1,105z M1098.3,119.7l-20.6,8.5l0,0.1l-0.1,0
	l8.5,20.6c-1.6,1.9-3.3,3.6-5.2,5.2l-20.6-8.5l0,0.1l-0.1,0l-8.5,20.6c-2.4,0.2-4.9,0.2-7.3,0l-8.5-20.6l-0.1,0l0-0.1l-20.6,8.6
	c-0.2-0.2-0.5-0.3-0.7-0.5c-0.7-0.6-1.3-1.3-2-1.9c-0.6-0.6-1.3-1.3-1.9-2c-0.2-0.2-0.3-0.4-0.5-0.7l8.5-20.6l-0.1,0l0-0.1
	l-20.6-8.5c-0.2-2.5-0.2-4.9,0-7.3l20.6-8.5l0-0.1l0.1,0l-8.5-20.6c1.6-1.9,3.3-3.6,5.2-5.2l20.6,8.5l0-0.1l0.1,0l8.5-20.6
	c2.5-0.2,4.9-0.2,7.3,0l8.5,20.6l0.1,0l20.6-8.5c0.9,0.8,1.7,1.6,2.6,2.5c0.9,0.9,1.7,1.8,2.5,2.7l-8.5,20.6l0.1,0l0,0.1l20.6,8.5
	C1098.5,114.8,1098.5,117.3,1098.3,119.7z M1065.5,109L1065.5,109l5-12.1c-0.9-1.1-1.9-2.1-3-3l-12,5l0,0l0,0l-5-12
	c-1.4-0.1-2.8-0.1-4.3,0l-5,12h0l0,0l-12-5c-1.1,0.9-2.1,1.9-3,3l5,12l0,0l0,0l-12.1,5c0,0.2,0,0.3,0,0.5c0,0.5,0,1.1,0,1.6
	c0,0.5,0,1.1,0,1.6c0,0.2,0,0.3,0,0.5l12.1,5v0.1l0,0l-5,12c0.9,1.1,1.9,2.1,3,3l12-5l0,0l0,0l5,12c1.4,0.1,2.9,0.1,4.3,0l5-12l0,0
	l0,0l12,5c1.1-0.9,2.1-1.9,3-3l-5-12l0,0l0,0l12-5c0-0.7,0.1-1.5,0.1-2.2c0-0.7,0-1.4-0.1-2.1L1065.5,109z M1048.2,124.2
	c-4.5,0-8.1-3.6-8.1-8.1c0-4.5,3.6-8.1,8.1-8.1c4.5,0,8.1,3.6,8.1,8.1C1056.3,120.6,1052.7,124.2,1048.2,124.2z"/>
<path class="st0" d="M151.1,49.3l-37.8,12.2l82,26.5v52.3L140.7,158l-46.1-14.9V91.8l44.6,14.4L176.9,94L94.8,67.4l-23.5,7.7V160
	l69.3,22.4l77.9-25.2V71L151.1,49.3z"/>
<g>
	<polygon id="chevron" class="st0" points="595.5,49.3 529.1,82.8 529.1,104.8 595.5,71.3 661.8,104.8 661.8,82.8 	"/>
	<g>
		<polygon id="chevron_1_" class="st0" points="595.5,87.8 529.1,121.3 529.1,143.3 595.5,109.8 661.8,143.3 661.8,121.3 		"/>
	</g>
	<g>
		<polygon id="chevron_2_" class="st0" points="595.5,126.3 529.1,159.8 529.1,181.9 595.5,148.3 661.8,181.9 661.8,159.8 		"/>
	</g>
</g>
<path class="st0" d="M772.7,49.3l-5,24.8h101l-3.2,16H764.5l-4.9,24.8h101l-5.6,28.3l-40.7,13.5L779,143.2l2.4-12.3h-24.8l-5.9,29.8
	l58.4,22.3l67.3-22.3l8.9-44.8l1.8-9l11.5-57.7H772.7z"/>
</svg>
