<?xml version="1.0" encoding="utf-8"?>
<!-- Generator: Adobe Illustrator 17.0.1, SVG Export Plug-In . SVG Version: 6.00 Build 0)  -->
<!DOCTYPE svg PUBLIC "-//W3C//DTD SVG 1.1//EN" "http://www.w3.org/Graphics/SVG/1.1/DTD/svg11.dtd">
<svg version="1.1" id="Capa_1" xmlns="http://www.w3.org/2000/svg" xmlns:xlink="http://www.w3.org/1999/xlink" x="0px" y="0px"
	 width="131.5px" height="106px" viewBox="0 0 131.5 106" enable-background="new 0 0 131.5 106" xml:space="preserve">
<path fill="#BEFF6A" d="M744,46.3l-13.9-5.7l5.7-13.7c-1.5-2-3-4-4.7-5.7c-0.1-0.1-0.2-0.2-0.3-0.4c-0.1-0.1-0.4-0.4-0.6-0.5
	c-1.7-1.6-3.5-3.2-5.5-4.6L711,21.4l-5.7-13.8c-4.9-0.8-10-0.8-14.8-0.1c-0.1,0-0.1,0-0.2,0c-0.2,0-0.4,0.1-0.6,0.1L684,21.4
	l-14-5.7c-4.1,3-7.7,6.5-10.7,10.5c0,0.1-0.1,0.1-0.1,0.1c-0.1,0.1-0.2,0.4-0.4,0.5l5.7,13.8l-13.8,5.7c-0.8,4.9-0.8,10-0.1,14.8
	c0,0.1,0,0.2,0,0.3c0,0.2,0.1,0.4,0.1,0.6l13.8,5.7l-5.7,13.8c1.3,1.8,2.8,3.6,4.2,5.2c0.3,0.3,0.6,0.6,0.8,0.8
	c0.2,0.2,0.4,0.4,0.6,0.6c1.6,1.6,3.5,3.1,5.4,4.5l13.8-5.7l5.7,13.8c0.2,0.1,0.4,0.1,0.6,0.1c0.1,0,0.1,0,0.1,0
	c4.9,0.8,9.9,0.7,14.9-0.1l5.7-13.9l13.8,5.7c0.2-0.1,0.4-0.2,0.5-0.4c0.1,0,0.1-0.1,0.1-0.1c4-2.9,7.5-6.5,10.5-10.6l-5.7-13.9
	l13.8-5.7c0-0.2,0.1-0.4,0.1-0.6c0-0.1,0-0.1,0-0.2C744.8,56.4,744.8,51.4,744,46.3z M732.8,56.7l-14.6,6v0.1h-0.1l6,14.6
	c-1.1,1.3-2.3,2.5-3.7,3.7l-14.6-6v0.1h-0.1l-6,14.6c-1.7,0.1-3.5,0.1-5.2,0l-6-14.6h-0.1V75l-14.6,6.1c-0.1-0.1-0.4-0.2-0.5-0.4
	c-0.5-0.4-0.9-0.9-1.4-1.3c-0.4-0.4-0.9-0.9-1.3-1.4c-0.1-0.1-0.2-0.3-0.4-0.5l6-14.6h-0.1v-0.1l-14.6-6c-0.1-1.8-0.1-3.5,0-5.2
	l14.6-6v-0.1h0.1l-6-14.6c1.1-1.3,2.3-2.5,3.7-3.7l14.6,6v-0.1h0.1l6-14.6c1.8-0.1,3.5-0.1,5.2,0l6,14.6h0.1l14.6-6
	c0.6,0.6,1.2,1.1,1.8,1.8c0.6,0.6,1.2,1.3,1.8,1.9l-6,14.6h0.1v0.1l14.6,6C732.9,53.3,732.9,55,732.8,56.7z M709.6,49.2L709.6,49.2
	l3.5-8.6c-0.6-0.8-1.3-1.5-2.1-2.1l-8.5,3.5l0,0l0,0l-3.5-8.5c-1-0.1-2-0.1-3,0l-3.5,8.5l0,0l0,0l-8.5-3.5c-0.8,0.6-1.5,1.3-2.1,2.1
	l3.5,8.5l0,0l0,0l-8.6,3.5c0,0.1,0,0.2,0,0.4c0,0.4,0,0.8,0,1.1s0,0.8,0,1.1c0,0.1,0,0.2,0,0.4l8.6,3.5v0.1l0,0l-3.5,8.5
	c0.6,0.8,1.3,1.5,2.1,2.1l8.5-3.5l0,0l0,0l3.5,8.5c1,0.1,2,0.1,3,0l3.5-8.5l0,0l0,0l8.5,3.5c0.8-0.6,1.5-1.3,2.1-2.1l-3.5-8.5l0,0
	l0,0l8.5-3.5c0-0.5,0.1-1.1,0.1-1.6s0-1-0.1-1.5L709.6,49.2z M697.4,59.9c-3.2,0-5.7-2.5-5.7-5.7s2.5-5.7,5.7-5.7s5.7,2.5,5.7,5.7
	C703.1,57.4,700.6,59.9,697.4,59.9z"/>
<path fill="#FFFFFF" d="M29.7,7l-3.5,17.5h71.4l-2.3,11.3H23.9l-3.5,17.5h71.4l-4,20L59,82.8l-25-9.5l1.7-8.7H18.2L14,85.7
	l41.3,15.8L103,85.7l6.3-31.7l1.3-6.4l8.1-40.8L29.7,7L29.7,7z"/>
</svg>
